<svg width="760" height="170" viewBox="0 0 760 170" fill="none" xmlns="http://www.w3.org/2000/svg">
<path d="M170 0H0V34H170V0Z" fill="#FFD800"/>
<path d="M170 34H0V68H170V34Z" fill="#FFAF00"/>
<path d="M170 68H0V102H170V68Z" fill="#FF8205"/>
<path d="M170 102H0V136H170V102Z" fill="#FA500F"/>
<path d="M170 136H0V170H170V136Z" fill="#E10500"/>
<g clip-path="url(#clip0_134_102)">
<path d="M59.0029 51H42.0044V67.9979H59.0029V51Z" fill="white"/>
<path d="M127.005 51H110.006V67.9979H127.005V51Z" fill="white"/>
<path d="M76.0014 67.9963H42.0044V84.9942H76.0014V67.9963Z" fill="white"/>
<path d="M126.998 67.9963H93.0015V84.9942H126.998V67.9963Z" fill="white"/>
<path d="M127.007 84.9948H42.0044V101.993H127.007V84.9948Z" fill="white"/>
<path d="M59.0029 102.003H42.0044V119.001H59.0029V102.003Z" fill="white"/>
<path d="M93.0119 102.003H76.0134V119.001H93.0119V102.003Z" fill="white"/>
<path d="M127.005 102.003H110.006V119.001H127.005V102.003Z" fill="white"/>
<path d="M76.006 119.002H25V135.999H76.006V119.002Z" fill="white"/>
<path d="M144.007 119.002H93.0015V135.999H144.007V119.002Z" fill="white"/>
</g>
<path d="M746.579 131.811V36.632H759.174V131.811H746.579Z" fill="white"/>
<path d="M645.305 131.811L681.857 36.632H695.426L734.381 131.811H720.033L708.931 102.985H669.132L658.679 131.811H645.305ZM672.768 92.7267H705.035L695.102 66.3674C692.072 58.36 689.821 51.781 688.35 46.6303C687.138 52.7332 685.428 58.7928 683.221 64.8092L672.768 92.7267Z" fill="white"/>
<path d="M594.783 131.811V36.632H606.47V131.811H594.783Z" fill="white"/>
<path d="M566.024 123.305C561.696 126.984 557.519 129.581 553.493 131.096C549.511 132.611 545.226 133.368 540.638 133.368C533.064 133.368 527.242 131.529 523.174 127.85C519.105 124.127 517.071 119.388 517.071 113.631C517.071 110.255 517.828 107.182 519.343 104.412C520.901 101.598 522.914 99.3477 525.381 97.6597C527.892 95.9717 530.705 94.6948 533.821 93.8292C536.115 93.2232 539.578 92.6389 544.209 92.0762C553.645 90.9508 560.592 89.6091 565.05 88.0509C565.093 86.4494 565.115 85.4323 565.115 84.9994C565.115 80.2383 564.011 76.8839 561.804 74.9361C558.817 72.2959 554.381 70.9757 548.494 70.9757C542.997 70.9757 538.929 71.9496 536.288 73.8973C533.691 75.8018 531.765 79.1995 530.51 84.0905L519.083 82.5323C520.122 77.6413 521.832 73.7026 524.212 70.7161C526.593 67.6862 530.034 65.3706 534.535 63.7691C539.037 62.1244 544.252 61.302 550.182 61.302C556.069 61.302 560.852 61.9945 564.531 63.3796C568.21 64.7646 570.915 66.5176 572.646 68.6385C574.377 70.716 575.589 73.3563 576.282 76.5592C576.671 78.5503 576.866 82.1428 576.866 87.3367V102.919C576.866 113.783 577.104 120.665 577.58 123.565C578.1 126.421 579.095 129.17 580.567 131.81H568.361C567.149 129.386 566.37 126.551 566.024 123.305ZM565.05 97.2052C560.808 98.9366 554.446 100.408 545.962 101.62C541.158 102.313 537.76 103.092 535.769 103.957C533.778 104.823 532.241 106.1 531.159 107.788C530.077 109.433 529.536 111.272 529.536 113.306C529.536 116.423 530.705 119.02 533.042 121.097C535.423 123.175 538.885 124.214 543.43 124.214C547.932 124.214 551.935 123.24 555.441 121.292C558.947 119.301 561.522 116.596 563.167 113.177C564.422 110.536 565.05 106.641 565.05 101.49V97.2052Z" fill="white"/>
<path d="M476.631 131.81V62.8602H487.149V73.313C489.832 68.4221 492.3 65.1975 494.55 63.6393C496.844 62.0811 499.355 61.302 502.081 61.302C506.02 61.302 510.024 62.5572 514.093 65.0676L510.067 75.91C507.211 74.222 504.354 73.378 501.497 73.378C498.943 73.378 496.649 74.157 494.615 75.7152C492.581 77.2301 491.131 79.351 490.265 82.0778C488.967 86.233 488.317 90.7777 488.317 95.712V131.81H476.631Z" fill="white"/>
<path d="M465.261 121.359L466.949 131.682C463.659 132.374 460.716 132.721 458.119 132.721C453.877 132.721 450.588 132.05 448.25 130.708C445.913 129.366 444.268 127.613 443.316 125.449C442.364 123.242 441.888 118.632 441.888 111.62V71.9513H433.318V62.8619H441.888V45.7867L453.509 38.7749V62.8619H465.261V71.9513H453.509V112.269C453.509 115.602 453.704 117.745 454.094 118.697C454.527 119.649 455.197 120.407 456.106 120.969C457.059 121.532 458.4 121.813 460.132 121.813C461.43 121.813 463.14 121.662 465.261 121.359Z" fill="white"/>
<path d="M368.589 111.229L380.146 109.411C380.795 114.042 382.591 117.592 385.534 120.059C388.521 122.526 392.676 123.759 398 123.759C403.367 123.759 407.349 122.677 409.946 120.513C412.543 118.306 413.841 115.73 413.841 112.787C413.841 110.147 412.694 108.069 410.4 106.554C408.799 105.516 404.817 104.195 398.454 102.594C389.884 100.43 383.933 98.5686 380.6 97.0105C377.311 95.409 374.8 93.2232 373.069 90.4531C371.381 87.6397 370.537 84.545 370.537 81.1689C370.537 78.0958 371.229 75.2608 372.614 72.6638C374.043 70.0235 375.969 67.8377 378.393 66.1064C380.211 64.7646 382.678 63.6393 385.794 62.7303C388.954 61.7781 392.33 61.302 395.922 61.302C401.333 61.302 406.072 62.0811 410.141 63.6393C414.253 65.1975 417.282 67.3183 419.23 70.0019C421.178 72.6421 422.52 76.1913 423.256 80.6495L411.829 82.2077C411.309 78.6585 409.795 75.8884 407.284 73.8973C404.817 71.9063 401.311 70.9108 396.766 70.9108C391.399 70.9108 387.569 71.7981 385.275 73.5727C382.981 75.3473 381.834 77.4249 381.834 79.8055C381.834 81.3204 382.31 82.6838 383.262 83.8957C384.214 85.1509 385.708 86.1897 387.742 87.0121C388.91 87.4449 392.351 88.4404 398.065 89.9986C406.332 92.206 412.089 94.0239 415.335 95.4523C418.624 96.8373 421.2 98.8716 423.061 101.555C424.922 104.239 425.852 107.572 425.852 111.554C425.852 115.449 424.705 119.128 422.411 122.591C420.161 126.01 416.893 128.672 412.608 130.576C408.323 132.438 403.475 133.368 398.065 133.368C389.105 133.368 382.267 131.507 377.549 127.785C372.874 124.062 369.888 118.544 368.589 111.229Z" fill="white"/>
<path d="M343.727 50.0713V36.632H355.413V50.0713H343.727ZM343.727 131.811V62.8614H355.413V131.811H343.727Z" fill="white"/>
<path d="M234 131.811V36.632H252.958L275.487 104.024C277.564 110.3 279.079 114.996 280.031 118.112C281.114 114.65 282.802 109.564 285.096 102.855L307.884 36.632H324.829V131.811H312.688V52.1489L285.031 131.811H273.669L246.141 50.7855V131.811H234Z" fill="white"/>
<defs>
<clipPath id="clip0_134_102">
<rect width="119" height="85" fill="white" transform="translate(25 51)"/>
</clipPath>
</defs>
</svg>
